<?xml version="1.0" encoding="UTF-8" standalone="no"?>
<!DOCTYPE svg PUBLIC "-//W3C//DTD SVG 1.1//EN"
 "http://www.w3.org/Graphics/SVG/1.1/DTD/svg11.dtd">
<!-- Generated by graphviz version 2.43.0 (0)
 -->
<!-- Title: %3 Pages: 1 -->
<svg width="758pt" height="260pt"
 viewBox="0.00 0.00 757.61 260.00" xmlns="http://www.w3.org/2000/svg" xmlns:xlink="http://www.w3.org/1999/xlink">
<g id="graph0" class="graph" transform="scale(1 1) rotate(0) translate(4 256)">
<title>%3</title>
<polygon fill="#242936" stroke="transparent" points="-4,4 -4,-256 753.61,-256 753.61,4 -4,4"/>
<!-- requirements.in -->
<g id="node1" class="node">
<title>requirements.in</title>
<polygon fill="none" stroke="#90b1ff" points="333.89,-180 215.89,-180 215.89,-144 333.89,-144 333.89,-180"/>
<text text-anchor="middle" x="274.89" y="-158.3" font-family="Iosevka Term Custom, ui-monospace, monospace" font-size="14.00" fill="#ff974e">requirements.in</text>
</g>
<!-- requirements.txt -->
<g id="node5" class="node">
<title>requirements.txt</title>
<polygon fill="none" stroke="#ab4736" points="114.89,-108 0.11,-90 114.89,-72 229.68,-90 114.89,-108"/>
<text text-anchor="middle" x="114.89" y="-86.3" font-family="Iosevka Term Custom, ui-monospace, monospace" font-size="14.00" fill="#ff974e">requirements.txt</text>
</g>
<!-- requirements.in&#45;&gt;requirements.txt -->
<g id="edge1" class="edge">
<title>requirements.in&#45;&gt;requirements.txt</title>
<path fill="none" stroke="#d5ff80" d="M235.75,-143.88C210.49,-132.82 177.79,-118.52 152.77,-107.57"/>
<polygon fill="#d5ff80" stroke="#d5ff80" points="154.16,-104.36 143.59,-103.56 151.35,-110.77 154.16,-104.36"/>
</g>
<!-- pyproject.toml -->
<g id="node7" class="node">
<title>pyproject.toml</title>
<polygon fill="none" stroke="#ab4736" points="349.89,-108 247.84,-90 349.89,-72 451.95,-90 349.89,-108"/>
<text text-anchor="middle" x="349.89" y="-86.3" font-family="Iosevka Term Custom, ui-monospace, monospace" font-size="14.00" fill="#ff974e">pyproject.toml</text>
</g>
<!-- requirements.in&#45;&gt;pyproject.toml -->
<g id="edge4" class="edge">
<title>requirements.in&#45;&gt;pyproject.toml</title>
<path fill="none" stroke="#d5ff80" d="M293.43,-143.7C303.49,-134.31 316.01,-122.63 326.7,-112.65"/>
<polygon fill="#d5ff80" stroke="#d5ff80" points="329.18,-115.12 334.1,-105.74 324.4,-110 329.18,-115.12"/>
</g>
<!-- dev&#45;requirements.in -->
<g id="node2" class="node">
<title>dev&#45;requirements.in</title>
<polygon fill="none" stroke="#90b1ff" points="497.39,-180 352.39,-180 352.39,-144 497.39,-144 497.39,-180"/>
<text text-anchor="middle" x="424.89" y="-158.3" font-family="Iosevka Term Custom, ui-monospace, monospace" font-size="14.00" fill="#ff974e">dev&#45;requirements.in</text>
</g>
<!-- dev&#45;requirements.txt -->
<g id="node6" class="node">
<title>dev&#45;requirements.txt</title>
<polygon fill="none" stroke="#ab4736" points="609.89,-108 469.97,-90 609.89,-72 749.82,-90 609.89,-108"/>
<text text-anchor="middle" x="609.89" y="-86.3" font-family="Iosevka Term Custom, ui-monospace, monospace" font-size="14.00" fill="#ff974e">dev&#45;requirements.txt</text>
</g>
<!-- dev&#45;requirements.in&#45;&gt;dev&#45;requirements.txt -->
<g id="edge2" class="edge">
<title>dev&#45;requirements.in&#45;&gt;dev&#45;requirements.txt</title>
<path fill="none" stroke="#d5ff80" d="M470.15,-143.88C499.56,-132.75 537.68,-118.33 566.67,-107.35"/>
<polygon fill="#d5ff80" stroke="#d5ff80" points="568.02,-110.59 576.13,-103.78 565.54,-104.04 568.02,-110.59"/>
</g>
<!-- dev&#45;requirements.in&#45;&gt;pyproject.toml -->
<g id="edge3" class="edge">
<title>dev&#45;requirements.in&#45;&gt;pyproject.toml</title>
<path fill="none" stroke="#d5ff80" d="M406.36,-143.7C396.3,-134.31 383.78,-122.63 373.09,-112.65"/>
<polygon fill="#d5ff80" stroke="#d5ff80" points="375.38,-110 365.69,-105.74 370.61,-115.12 375.38,-110"/>
</g>
<!-- venv -->
<g id="node3" class="node">
<title>venv</title>
<polygon fill="none" stroke="#5ccacd" points="364.71,-0.05 366.57,-0.15 368.42,-0.3 370.23,-0.49 372.02,-0.74 373.76,-1.03 375.45,-1.36 377.09,-1.75 378.67,-2.18 380.18,-2.65 381.62,-3.16 382.98,-3.71 384.26,-4.31 385.45,-4.94 386.55,-5.61 387.57,-6.31 388.48,-7.04 389.3,-7.8 390.02,-8.59 390.64,-9.41 391.17,-10.25 391.59,-11.11 391.91,-11.99 392.14,-12.89 392.27,-13.8 392.3,-14.72 392.25,-15.65 392.1,-16.59 391.87,-17.53 391.55,-18.47 391.15,-19.41 390.68,-20.35 390.13,-21.28 389.52,-22.2 388.84,-23.11 388.1,-24.01 387.3,-24.89 386.46,-25.75 385.56,-26.59 384.62,-27.41 383.64,-28.2 382.63,-28.96 381.58,-29.69 380.5,-30.39 379.4,-31.06 378.27,-31.69 377.12,-32.29 375.96,-32.84 374.78,-33.35 373.58,-33.82 372.38,-34.25 371.16,-34.64 369.94,-34.97 368.71,-35.26 367.48,-35.51 366.24,-35.7 365,-35.85 363.76,-35.95 362.52,-36 361.27,-36 360.03,-35.95 358.79,-35.85 357.55,-35.7 356.31,-35.51 355.08,-35.26 353.85,-34.97 352.63,-34.64 351.41,-34.25 350.21,-33.82 349.01,-33.35 347.83,-32.84 346.67,-32.29 345.52,-31.69 344.39,-31.06 343.29,-30.39 342.21,-29.69 341.16,-28.96 340.15,-28.2 339.17,-27.41 338.23,-26.59 337.33,-25.75 336.49,-24.89 335.69,-24.01 334.95,-23.11 334.27,-22.2 333.66,-21.28 333.11,-20.35 332.64,-19.41 332.24,-18.47 331.92,-17.53 331.69,-16.59 331.54,-15.65 331.49,-14.72 331.52,-13.8 331.65,-12.89 331.88,-11.99 332.2,-11.11 332.62,-10.25 333.14,-9.41 333.77,-8.59 334.49,-7.8 335.31,-7.04 336.22,-6.31 337.24,-5.61 338.34,-4.94 339.53,-4.31 340.81,-3.71 342.17,-3.16 343.61,-2.65 345.12,-2.18 346.7,-1.75 348.34,-1.36 350.03,-1.03 351.77,-0.74 353.56,-0.49 355.37,-0.3 357.22,-0.15 359.08,-0.05 360.96,0 362.83,0 364.71,-0.05"/>
<text text-anchor="middle" x="361.89" y="-14.3" font-family="Iosevka Term Custom, ui-monospace, monospace" font-size="14.00" fill="#ff974e">venv</text>
</g>
<!-- human -->
<g id="node4" class="node">
<title>human</title>
<polygon fill="none" stroke="#5ccacd" points="353.11,-216.05 355.23,-216.15 357.34,-216.3 359.41,-216.49 361.45,-216.74 363.44,-217.03 365.37,-217.36 367.24,-217.75 369.04,-218.18 370.77,-218.65 372.41,-219.16 373.96,-219.71 375.42,-220.31 376.79,-220.94 378.05,-221.61 379.2,-222.31 380.25,-223.04 381.18,-223.8 382.01,-224.59 382.72,-225.41 383.31,-226.25 383.79,-227.11 384.16,-227.99 384.42,-228.89 384.57,-229.8 384.61,-230.72 384.54,-231.65 384.38,-232.59 384.11,-233.53 383.75,-234.47 383.29,-235.41 382.75,-236.35 382.13,-237.28 381.43,-238.2 380.65,-239.11 379.81,-240.01 378.9,-240.89 377.93,-241.75 376.91,-242.59 375.84,-243.41 374.72,-244.2 373.56,-244.96 372.37,-245.69 371.14,-246.39 369.87,-247.06 368.59,-247.69 367.28,-248.29 365.95,-248.84 364.6,-249.35 363.24,-249.82 361.86,-250.25 360.48,-250.64 359.08,-250.97 357.68,-251.26 356.27,-251.51 354.86,-251.7 353.44,-251.85 352.02,-251.95 350.6,-252 349.18,-252 347.76,-251.95 346.35,-251.85 344.93,-251.7 343.52,-251.51 342.11,-251.26 340.71,-250.97 339.31,-250.64 337.93,-250.25 336.55,-249.82 335.19,-249.35 333.84,-248.84 332.51,-248.29 331.2,-247.69 329.91,-247.06 328.65,-246.39 327.42,-245.69 326.23,-244.96 325.07,-244.2 323.95,-243.41 322.88,-242.59 321.85,-241.75 320.89,-240.89 319.98,-240.01 319.14,-239.11 318.36,-238.2 317.66,-237.28 317.04,-236.35 316.5,-235.41 316.04,-234.47 315.68,-233.53 315.41,-232.59 315.25,-231.65 315.18,-230.72 315.22,-229.8 315.37,-228.89 315.62,-227.99 315.99,-227.11 316.48,-226.25 317.07,-225.41 317.78,-224.59 318.61,-223.8 319.54,-223.04 320.59,-222.31 321.74,-221.61 323,-220.94 324.37,-220.31 325.83,-219.71 327.38,-219.16 329.02,-218.65 330.75,-218.18 332.55,-217.75 334.42,-217.36 336.35,-217.03 338.34,-216.74 340.38,-216.49 342.45,-216.3 344.56,-216.15 346.68,-216.05 348.82,-216 350.97,-216 353.11,-216.05"/>
<text text-anchor="middle" x="349.89" y="-230.3" font-family="Iosevka Term Custom, ui-monospace, monospace" font-size="14.00" fill="#ff974e">human</text>
</g>
<!-- human&#45;&gt;requirements.in -->
<g id="edge7" class="edge">
<title>human&#45;&gt;requirements.in</title>
<path fill="none" stroke="#d5ff80" d="M333.25,-217.46C323.73,-208.58 311.59,-197.25 300.85,-187.23"/>
<polygon fill="#d5ff80" stroke="#d5ff80" points="303.03,-184.48 293.33,-180.21 298.26,-189.59 303.03,-184.48"/>
</g>
<!-- human&#45;&gt;dev&#45;requirements.in -->
<g id="edge8" class="edge">
<title>human&#45;&gt;dev&#45;requirements.in</title>
<path fill="none" stroke="#d5ff80" d="M366.54,-217.46C376.05,-208.58 388.2,-197.25 398.94,-187.23"/>
<polygon fill="#d5ff80" stroke="#d5ff80" points="401.53,-189.59 406.45,-180.21 396.76,-184.48 401.53,-189.59"/>
</g>
<!-- requirements.txt&#45;&gt;venv -->
<g id="edge5" class="edge">
<title>requirements.txt&#45;&gt;venv</title>
<path fill="none" stroke="#d5ff80" d="M153.76,-77.99C201.63,-64.42 282.19,-41.59 327.77,-28.67"/>
<polygon fill="#d5ff80" stroke="#d5ff80" points="328.81,-32.01 337.48,-25.92 326.91,-25.28 328.81,-32.01"/>
</g>
<!-- dev&#45;requirements.txt&#45;&gt;venv -->
<g id="edge6" class="edge">
<title>dev&#45;requirements.txt&#45;&gt;venv</title>
<path fill="none" stroke="#d5ff80" d="M568.39,-77.28C520.16,-63.67 441.46,-41.46 396.43,-28.75"/>
<polygon fill="#d5ff80" stroke="#d5ff80" points="397.12,-25.31 386.55,-25.96 395.22,-32.04 397.12,-25.31"/>
</g>
</g>
</svg>
